HIERARCHY
ROOT Hips
{
	OFFSET 0.000000 71.427986 0.000000
	CHANNELS 6 Xposition Yposition Zposition Xrotation Yrotation Zrotation
	JOINT Pelvis
	{
		OFFSET 0.000000 0.000000 0.000000
		CHANNELS 3 Xrotation Yrotation Zrotation
		JOINT LeftUpLeg
		{
			OFFSET 6.797100 -2.508499 -1.318700
			CHANNELS 3 Xrotation Yrotation Zrotation
			JOINT LeftLeg
			{
				OFFSET 0.069008 -29.241863 0.690200
				CHANNELS 3 Xrotation Yrotation Zrotation
				JOINT LeftFoot
				{
					OFFSET -0.069008 -29.568123 -0.266800
					CHANNELS 3 Xrotation Yrotation Zrotation
					JOINT LeftToeBase
					{
						OFFSET 3.145500 -8.631000 16.059900
						CHANNELS 3 Xrotation Yrotation Zrotation
						End Site
						{
							OFFSET 0.000000 18.501587 0.000000
						}
					}
				}
			}
			JOINT Left_ShortSleeve
			{
				OFFSET 0.265923 -10.480953 1.153800
				CHANNELS 3 Xrotation Yrotation Zrotation
				End Site
				{
					OFFSET 1.725763 19.823879 0.000000
				}
			}
		}
		JOINT RightUpLeg
		{
			OFFSET -6.797100 -2.508499 -1.318700
			CHANNELS 3 Xrotation Yrotation Zrotation
			JOINT RightLeg
			{
				OFFSET -0.082453 -29.241932 0.688000
				CHANNELS 3 Xrotation Yrotation Zrotation
				JOINT RightFoot
				{
					OFFSET 0.082453 -29.568058 -0.264600
					CHANNELS 3 Xrotation Yrotation Zrotation
					JOINT RightToeBase
					{
						OFFSET -3.115300 -8.682800 16.113400
						CHANNELS 3 Xrotation Yrotation Zrotation
						End Site
						{
							OFFSET 0.000000 18.567114 0.000000
						}
					}
				}
			}
			JOINT Right_ShortSleeve
			{
				OFFSET -0.265923 -10.480953 1.153800
				CHANNELS 3 Xrotation Yrotation Zrotation
				End Site
				{
					OFFSET -1.725766 19.823910 0.000000
				}
			}
		}
	}
	JOINT Spine
	{
		OFFSET 0.000000 13.368103 0.470500
		CHANNELS 3 Xrotation Yrotation Zrotation
		JOINT Spine1
		{
			OFFSET 0.147000 13.837402 0.538800
			CHANNELS 3 Xrotation Yrotation Zrotation
			JOINT Spine2
			{
				OFFSET 0.168000 16.242897 -1.435500
				CHANNELS 3 Xrotation Yrotation Zrotation
				JOINT Neck
				{
					OFFSET 0.217200 18.631500 -1.679100
					CHANNELS 3 Xrotation Yrotation Zrotation
					JOINT Head
					{
						OFFSET 0.000000 6.599396 1.385900
						CHANNELS 3 Xrotation Yrotation Zrotation
						JOINT Hat
						{
							OFFSET -0.532200 27.220596 -10.096100
							CHANNELS 3 Xrotation Yrotation Zrotation
							End Site
							{
								OFFSET 0.000000 22.029861 0.000000
							}
						}
						JOINT HairD
						{
							OFFSET -10.777400 17.437393 -1.325900
							CHANNELS 3 Xrotation Yrotation Zrotation
							JOINT HairD1
							{
								OFFSET -3.290299 -11.051193 1.062200
								CHANNELS 3 Xrotation Yrotation Zrotation
								End Site
								{
									OFFSET 0.000000 11.579437 0.000000
								}
							}
						}
						JOINT HairB
						{
							OFFSET -10.777400 17.437393 1.467900
							CHANNELS 3 Xrotation Yrotation Zrotation
							JOINT HairB1
							{
								OFFSET -1.561200 -12.956299 3.590200
								CHANNELS 3 Xrotation Yrotation Zrotation
								End Site
								{
									OFFSET 0.000000 13.534866 0.000000
								}
							}
						}
						JOINT HairA
						{
							OFFSET 9.713100 17.437393 1.467900
							CHANNELS 3 Xrotation Yrotation Zrotation
							JOINT HairA1
							{
								OFFSET 1.561200 -12.956299 3.590200
								CHANNELS 3 Xrotation Yrotation Zrotation
								End Site
								{
									OFFSET 0.000000 13.534866 0.000000
								}
							}
						}
						JOINT HairC
						{
							OFFSET 9.713100 17.437393 -1.325900
							CHANNELS 3 Xrotation Yrotation Zrotation
							JOINT HairC1
							{
								OFFSET 3.290300 -11.051193 1.062200
								CHANNELS 3 Xrotation Yrotation Zrotation
								End Site
								{
									OFFSET 0.000000 11.579437 0.000000
								}
							}
						}
					}
				}
				JOINT LeftShoulder
				{
					OFFSET 5.101800 15.108002 -2.763700
					CHANNELS 3 Xrotation Yrotation Zrotation
					JOINT LeftArm
					{
						OFFSET 9.825497 2.506317 -1.597400
						CHANNELS 3 Xrotation Yrotation Zrotation
						JOINT LeftForeArm
						{
							OFFSET 21.966244 0.000000 0.000000
							CHANNELS 3 Xrotation Yrotation Zrotation
							JOINT LeftHand
							{
								OFFSET 33.879036 0.000000 0.000000
								CHANNELS 3 Xrotation Yrotation Zrotation
								JOINT LeftHandThumb1
								{
									OFFSET 6.715286 -2.359680 3.363841
									CHANNELS 3 Xrotation Yrotation Zrotation
									JOINT LeftHandThumb2
									{
										OFFSET 2.507072 -1.447464 1.447461
										CHANNELS 3 Xrotation Yrotation Zrotation
										JOINT LeftHandThumb3
										{
											OFFSET 2.898338 -1.673355 1.673357
											CHANNELS 3 Xrotation Yrotation Zrotation
											End Site
											{
												OFFSET -0.295959 3.727692 -0.131651
											}
										}
									}
								}
								JOINT LeftHandIndex1
								{
									OFFSET 14.190811 -0.254547 3.840278
									CHANNELS 3 Xrotation Yrotation Zrotation
									JOINT LeftHandIndex2
									{
										OFFSET 3.551727 0.000000 -0.000000
										CHANNELS 3 Xrotation Yrotation Zrotation
										JOINT LeftHandIndex3
										{
											OFFSET 2.894196 0.000000 0.000000
											CHANNELS 3 Xrotation Yrotation Zrotation
											End Site
											{
												OFFSET -1.000603 2.690872 0.366626
											}
										}
									}
								}
								JOINT LeftHandMiddle1
								{
									OFFSET 13.776489 0.000000 0.000000
									CHANNELS 3 Xrotation Yrotation Zrotation
									JOINT LeftHandMiddle2
									{
										OFFSET 3.438232 0.000000 0.000000
										CHANNELS 3 Xrotation Yrotation Zrotation
										JOINT LeftHandMiddle3
										{
											OFFSET 3.691551 0.000000 0.000000
											CHANNELS 3 Xrotation Yrotation Zrotation
											End Site
											{
												OFFSET -1.082298 3.499527 0.457670
											}
										}
									}
								}
								JOINT LeftHandRing1
								{
									OFFSET 13.966164 -0.268127 -3.067488
									CHANNELS 3 Xrotation Yrotation Zrotation
									JOINT LeftHandRing2
									{
										OFFSET 3.162567 0.000000 0.000000
										CHANNELS 3 Xrotation Yrotation Zrotation
										JOINT LeftHandRing3
										{
											OFFSET 3.324348 0.000000 0.000000
											CHANNELS 3 Xrotation Yrotation Zrotation
											End Site
											{
												OFFSET -0.861900 3.184998 0.405154
											}
										}
									}
								}
								JOINT LeftHandPinky1
								{
									OFFSET 13.131393 -0.168503 -5.746925
									CHANNELS 3 Xrotation Yrotation Zrotation
									JOINT LeftHandPinky2
									{
										OFFSET 2.849182 0.000000 0.000000
										CHANNELS 3 Xrotation Yrotation Zrotation
										JOINT LeftHandPinky3
										{
											OFFSET 2.805038 0.000000 0.000000
											CHANNELS 3 Xrotation Yrotation Zrotation
											End Site
											{
												OFFSET -0.882500 2.642609 0.325652
											}
										}
									}
								}
							}
							JOINT Left_Sleeve
							{
								OFFSET 6.592125 -0.646545 0.805568
								CHANNELS 3 Xrotation Yrotation Zrotation
								End Site
								{
									OFFSET -0.000179 20.275787 -0.000000
								}
							}
						}
					}
				}
				JOINT RightShoulder
				{
					OFFSET -5.731700 15.108002 -2.763700
					CHANNELS 3 Xrotation Yrotation Zrotation
					JOINT RightArm
					{
						OFFSET -9.825497 2.506317 -1.597400
						CHANNELS 3 Xrotation Yrotation Zrotation
						JOINT RightForeArm
						{
							OFFSET -21.966242 0.000000 0.000000
							CHANNELS 3 Xrotation Yrotation Zrotation
							JOINT RightHand
							{
								OFFSET -33.879032 0.000000 0.000000
								CHANNELS 3 Xrotation Yrotation Zrotation
								JOINT RightHandThumb1
								{
									OFFSET -6.715286 -2.359680 3.363841
									CHANNELS 3 Xrotation Yrotation Zrotation
									JOINT RightHandThumb2
									{
										OFFSET -2.507072 -1.447464 1.447461
										CHANNELS 3 Xrotation Yrotation Zrotation
										JOINT RightHandThumb3
										{
											OFFSET -2.898338 -1.673355 1.673357
											CHANNELS 3 Xrotation Yrotation Zrotation
											End Site
											{
												OFFSET 0.295959 3.727692 -0.131651
											}
										}
									}
								}
								JOINT RightHandIndex1
								{
									OFFSET -14.190811 -0.254547 3.840278
									CHANNELS 3 Xrotation Yrotation Zrotation
									JOINT RightHandIndex2
									{
										OFFSET -3.551727 0.000000 -0.000000
										CHANNELS 3 Xrotation Yrotation Zrotation
										JOINT RightHandIndex3
										{
											OFFSET -2.894196 0.000000 0.000000
											CHANNELS 3 Xrotation Yrotation Zrotation
											End Site
											{
												OFFSET 1.000603 2.690872 0.366626
											}
										}
									}
								}
								JOINT RightHandMiddle1
								{
									OFFSET -13.776489 0.000000 0.000000
									CHANNELS 3 Xrotation Yrotation Zrotation
									JOINT RightHandMiddle2
									{
										OFFSET -3.438232 0.000000 0.000000
										CHANNELS 3 Xrotation Yrotation Zrotation
										JOINT RightHandMiddle3
										{
											OFFSET -3.691551 0.000000 0.000000
											CHANNELS 3 Xrotation Yrotation Zrotation
											End Site
											{
												OFFSET 1.082298 3.499527 0.457670
											}
										}
									}
								}
								JOINT RightHandRing1
								{
									OFFSET -13.966164 -0.268127 -3.067488
									CHANNELS 3 Xrotation Yrotation Zrotation
									JOINT RightHandRing2
									{
										OFFSET -3.162567 0.000000 0.000000
										CHANNELS 3 Xrotation Yrotation Zrotation
										JOINT RightHandRing3
										{
											OFFSET -3.324348 0.000000 0.000000
											CHANNELS 3 Xrotation Yrotation Zrotation
											End Site
											{
												OFFSET 0.861900 3.184998 0.405154
											}
										}
									}
								}
								JOINT RightHandPinky1
								{
									OFFSET -13.131393 -0.168503 -5.746925
									CHANNELS 3 Xrotation Yrotation Zrotation
									JOINT RightHandPinky2
									{
										OFFSET -2.849182 0.000000 0.000000
										CHANNELS 3 Xrotation Yrotation Zrotation
										JOINT RightHandPinky3
										{
											OFFSET -2.805038 0.000000 0.000000
											CHANNELS 3 Xrotation Yrotation Zrotation
											End Site
											{
												OFFSET 0.882500 2.642609 0.325652
											}
										}
									}
								}
							}
							JOINT Right_Sleeve
							{
								OFFSET -6.592125 -0.646545 0.805568
								CHANNELS 3 Xrotation Yrotation Zrotation
								End Site
								{
									OFFSET 0.000179 20.275787 -0.000000
								}
							}
						}
					}
				}
				JOINT Bind_Right_JacketString
				{
					OFFSET -3.534800 11.969597 7.200700
					CHANNELS 3 Xrotation Yrotation Zrotation
					JOINT Bind_Right_JacketString1
					{
						OFFSET -0.319900 -6.102600 2.794100
						CHANNELS 3 Xrotation Yrotation Zrotation
						End Site
						{
							OFFSET 0.000000 6.719452 0.000000
						}
					}
				}
				JOINT Bind_Left_JacketString
				{
					OFFSET 2.904800 11.969597 7.200700
					CHANNELS 3 Xrotation Yrotation Zrotation
					JOINT Bind_Left_JacketString1
					{
						OFFSET 0.364800 -5.904503 3.186800
						CHANNELS 3 Xrotation Yrotation Zrotation
						End Site
						{
							OFFSET 0.000000 6.719513 0.000000
						}
					}
				}
				JOINT HairE
				{
					OFFSET 5.915200 17.612701 -11.592200
					CHANNELS 3 Xrotation Yrotation Zrotation
					JOINT HairE1
					{
						OFFSET 0.289200 -7.171898 -1.284500
						CHANNELS 3 Xrotation Yrotation Zrotation
						End Site
						{
							OFFSET 0.000000 7.291756 0.000000
						}
					}
				}
				JOINT HairF
				{
					OFFSET -0.864800 17.612701 -11.592200
					CHANNELS 3 Xrotation Yrotation Zrotation
					JOINT HairF1
					{
						OFFSET 0.000000 -14.087097 -2.127501
						CHANNELS 3 Xrotation Yrotation Zrotation
						End Site
						{
							OFFSET 0.000000 14.246841 0.000000
						}
					}
				}
				JOINT HairG
				{
					OFFSET -8.087700 17.612701 -11.592200
					CHANNELS 3 Xrotation Yrotation Zrotation
					JOINT HairG1
					{
						OFFSET -0.293600 -6.081398 -0.910100
						CHANNELS 3 Xrotation Yrotation Zrotation
						End Site
						{
							OFFSET 0.000000 6.156120 0.000000
						}
					}
				}
			}
		}
	}
	JOINT Pouch
	{
		OFFSET 0.000000 4.394501 10.847300
		CHANNELS 3 Xrotation Yrotation Zrotation
		End Site
		{
			OFFSET 0.000000 21.880577 0.000000
		}
	}
	JOINT Bag
	{
		OFFSET -13.229000 4.813004 -0.593300
		CHANNELS 3 Xrotation Yrotation Zrotation
		End Site
		{
			OFFSET 0.000000 21.880577 0.000000
		}
	}
	JOINT OccupyGuyFacialAnim_Joint
	{
		OFFSET 1.000000 -70.206398 -1.655000
		CHANNELS 3 Xrotation Yrotation Zrotation
		End Site
		{
			OFFSET 0.000000 21.880577 0.000000
		}
	}
}
MOTION
Frames: 4
Frame Time: 0.016667
-55.566536 15.866795 3.114470 -59.341585 9.156533 98.324958 -0.000001 -0.000001 -0.000001 -33.199897 25.354268 3.935384 63.463249 -1.461015 -7.613625 -20.110085 -10.436153 -0.628657 0.000001 -0.000001 0.000000 0.000001 -0.000001 -0.000000 -58.082399 -11.717236 -32.632554 121.146587 7.764922 7.695376 -3.266926 8.436385 27.845932 -0.000001 0.000001 0.000000 0.000004 -0.000002 -0.000003 13.671604 -0.285638 -5.674914 16.440315 0.246667 -3.275166 16.425638 0.382575 -3.359049 55.837879 6.470994 -15.932347 -15.707543 9.351469 1.833022 0.000001 0.000001 0.000001 0.000001 0.000001 0.000001 0.000001 0.000001 0.000001 0.000001 0.000001 0.000001 0.000000 0.000001 0.000000 0.000001 0.000001 0.000001 0.000000 0.000001 0.000000 0.000001 0.000001 0.000001 0.000001 0.000001 0.000001 5.814964 1.516420 -4.688134 -74.915257 -6.740979 -27.974759 58.640808 -0.227362 0.365219 -133.094815 1.338638 -9.402838 40.109955 -15.297122 -0.360508 5.639818 28.097925 11.338846 0.000003 0.000002 0.000003 6.882260 2.840087 -61.140404 8.247990 7.640042 -89.897878 0.000002 -0.000000 0.000001 -2.345509 4.688879 -62.655204 8.754151 9.897077 -87.051294 0.000003 0.000000 -0.000001 -9.042452 10.045636 -60.766171 8.524087 9.508836 -66.893035 -0.000001 0.000001 -0.000001 -17.946908 14.755017 -51.485857 8.868449 8.667052 -84.811989 -0.000003 0.000004 -0.000000 -0.000000 -0.000003 0.000000 4.350991 9.519733 -3.915178 -1.908426 -4.831198 1.339513 32.754630 33.258752 -23.829336 -6.484605 12.966951 -27.297546 -1.264363 -6.049211 -2.222026 3.622112 -28.238608 -7.467035 -0.000002 -0.000002 -0.000001 5.510551 -12.536738 32.643745 0.964241 -4.576388 40.090413 0.000001 -0.000002 0.000002 2.422449 -10.452768 50.257673 1.705357 -6.329514 40.569964 -0.000001 -0.000001 0.000001 1.697865 -16.683499 49.417860 3.312904 -5.897106 49.275211 0.000003 -0.000002 -0.000003 -0.128109 -24.863972 64.179531 8.350119 -6.902203 80.012941 0.000001 0.000003 -0.000001 0.000002 -0.000003 -0.000000 0.000002 0.000000 0.000000 0.000000 0.000000 -0.000002 0.000002 0.000000 0.000000 0.000002 0.000000 0.000000 0.000002 0.000000 0.000000 0.000000 0.000000 -0.000001 0.000002 0.000000 0.000000 0.000002 0.000000 0.000000 0.000002 0.000000 0.000000 0.000000 0.000000 -0.000001 -0.000001 -0.000001 -0.000001 -0.000001 -0.000001 -0.000001 -0.000001 -0.000001 -0.000001 
-56.196823 13.393929 3.534922 -58.852004 3.767067 100.835005 -0.000000 -0.000003 0.000001 -30.865816 21.714689 2.466849 66.543849 1.639771 -7.515507 -28.327858 -9.039206 1.743083 0.000001 -0.000000 -0.000000 -0.000000 0.000000 0.000000 -57.224267 -13.176507 -30.911739 122.414339 0.755634 5.745013 -11.410070 5.459549 25.513180 -0.000001 -0.000001 0.000000 -0.000000 0.000002 0.000000 15.958798 -0.949440 -4.972265 15.237942 -0.553112 -2.719574 15.233181 -0.442757 -2.765196 59.396097 3.808032 -15.534171 -14.123797 7.966005 -0.046232 -0.000000 0.000003 -0.000001 -0.000000 0.000003 -0.000001 -0.000000 0.000003 -0.000001 -0.000000 0.000003 -0.000001 -0.000000 0.000001 -0.000001 -0.000000 0.000003 -0.000001 -0.000000 0.000001 -0.000001 -0.000000 0.000003 -0.000001 -0.000000 0.000003 -0.000001 5.850632 3.867364 -9.147228 -79.175464 -4.790797 -29.369626 66.580766 -0.196863 0.415293 -130.528576 2.100592 -1.414916 40.109948 -15.297122 -0.360502 5.639817 28.097925 11.338847 0.000000 0.000003 -0.000000 6.882261 2.840083 -61.140404 8.247988 7.640042 -89.897878 0.000002 0.000003 0.000000 -2.345507 4.688878 -62.655204 8.754154 9.897077 -87.051301 0.000003 -0.000002 -0.000003 -9.042452 10.045635 -60.766171 8.524084 9.508837 -66.893035 -0.000000 0.000000 0.000002 -17.946906 14.755010 -51.485850 8.868458 8.667052 -84.811989 0.000001 -0.000001 -0.000001 -0.000002 0.000002 0.000001 3.987313 5.771292 -5.369512 0.856463 3.213917 0.708507 26.740037 31.874915 -18.503111 -6.515401 15.387226 -26.510761 -1.549570 -6.169134 -1.948571 3.754899 -28.218797 -7.731344 -0.000003 -0.000001 -0.000001 5.611874 -12.685522 32.943785 1.033062 -4.592712 40.333360 0.000002 0.000001 0.000002 2.535943 -10.495723 50.782269 1.733157 -6.345978 40.670966 0.000005 0.000001 -0.000006 1.857078 -16.770022 49.979284 3.310358 -5.941006 49.419349 0.000001 0.000004 -0.000001 0.126684 -25.012641 64.844300 8.394876 -7.019061 80.688488 0.000003 0.000003 0.000003 0.000002 -0.000002 -0.000001 0.000000 -0.000001 0.000002 0.000000 0.000001 -0.000003 0.000000 -0.000001 0.000002 0.000000 -0.000001 0.000002 0.000000 -0.000001 0.000002 0.000000 0.000001 -0.000003 0.000000 -0.000001 0.000002 0.000000 -0.000001 0.000002 0.000000 -0.000001 0.000002 0.000000 0.000001 -0.000003 -0.000000 -0.000003 0.000001 -0.000000 -0.000003 0.000001 -0.000000 -0.000003 0.000001 
-56.563980 12.077248 3.913607 -58.109480 -0.921444 102.984226 -0.000000 -0.000002 -0.000001 -27.796925 17.191731 1.701120 68.272870 9.873341 -8.307448 -34.199823 -4.341802 -5.662889 -0.000000 -0.000000 -0.000000 0.000001 -0.000001 -0.000000 -56.062261 -13.714938 -28.376871 122.534181 -8.129949 4.027063 -15.891207 3.830598 20.296699 -0.000001 -0.000000 0.000000 -0.000001 -0.000000 -0.000001 17.609688 -1.739811 -4.062263 13.624165 -1.732715 -2.465763 13.638212 -1.655714 -2.445545 61.075511 1.954507 -14.888462 -12.574471 6.608043 -1.023418 0.000000 -0.000002 -0.000001 0.000000 -0.000002 -0.000001 0.000000 -0.000002 -0.000002 0.000000 -0.000002 -0.000001 0.000000 -0.000000 0.000001 0.000000 -0.000002 -0.000001 0.000000 -0.000000 0.000001 0.000000 -0.000002 -0.000001 0.000000 -0.000002 -0.000001 5.241378 7.707913 -14.772676 -82.451476 -2.394238 -28.832872 71.492130 -0.210153 0.553451 -123.104434 0.006962 2.277015 40.109958 -15.297122 -0.360509 5.639815 28.097925 11.338844 0.000000 -0.000000 0.000000 6.882261 2.840086 -61.140397 8.247990 7.640047 -89.897878 -0.000000 -0.000000 -0.000002 -2.345507 4.688880 -62.655204 8.754151 9.897076 -87.051294 0.000004 0.000003 -0.000002 -9.042454 10.045634 -60.766171 8.524085 9.508837 -66.893035 0.000002 -0.000002 -0.000003 -17.946908 14.755017 -51.485857 8.868455 8.667050 -84.811989 -0.000001 0.000001 0.000001 0.000003 -0.000001 0.000004 4.001942 5.115527 -8.837081 0.941032 11.676203 -0.032718 16.412176 34.300134 -10.963363 -9.500787 4.579492 -16.821530 -1.829256 -6.289131 -1.679243 3.885971 -28.199326 -7.991214 -0.000002 0.000001 0.000000 5.712092 -12.831506 33.221183 1.100931 -4.608004 40.554347 0.000002 -0.000004 -0.000002 2.647855 -10.536406 51.279858 1.759827 -6.362467 40.753014 0.000002 -0.000001 -0.000001 2.014528 -16.852397 50.513767 3.308025 -5.984397 49.543330 -0.000001 0.000000 0.000001 0.379768 -25.154262 65.481754 8.441281 -7.134614 81.335020 -0.000000 -0.000001 0.000002 -0.000001 0.000001 0.000002 -0.000001 0.000003 -0.000001 -0.000001 0.000002 -0.000002 -0.000001 0.000003 -0.000001 -0.000001 0.000003 -0.000001 -0.000001 0.000003 -0.000001 -0.000001 0.000002 -0.000002 -0.000001 0.000003 -0.000001 -0.000001 0.000003 -0.000001 -0.000001 0.000003 -0.000001 -0.000001 0.000002 -0.000002 -0.000000 -0.000002 -0.000001 -0.000000 -0.000002 -0.000001 -0.000000 -0.000002 -0.000001 
-56.909855 11.507195 4.137676 -57.890573 -4.920609 105.458114 -0.000000 0.000003 -0.000002 -23.973914 13.221385 -0.339219 68.813937 19.531034 -8.925009 -36.965865 1.019753 -12.934201 -0.000000 -0.000000 -0.000000 0.000005 0.000001 -0.000001 -53.916106 -12.748760 -28.183235 120.559614 -9.940113 3.527093 -15.599344 2.477639 14.774879 -0.000001 0.000002 0.000000 -0.000002 -0.000002 -0.000001 17.567288 -1.837812 -4.747535 12.355800 -1.761865 -1.940307 12.378797 -1.624610 -1.926819 59.987700 0.650050 -12.018809 -12.691761 2.856323 1.482940 -0.000001 0.000000 -0.000001 -0.000001 0.000000 -0.000001 -0.000001 0.000000 -0.000002 -0.000001 0.000000 -0.000001 -0.000001 0.000001 -0.000001 -0.000001 0.000000 -0.000001 -0.000001 0.000001 -0.000001 -0.000001 0.000000 -0.000001 -0.000001 0.000000 -0.000001 3.701495 9.640391 -19.253697 -85.769759 -1.001398 -27.598657 69.277967 -0.255665 0.574450 -109.058491 -7.133587 4.798813 40.109951 -15.297117 -0.360502 5.639819 28.097925 11.338847 -0.000000 0.000001 0.000000 6.882260 2.840086 -61.140397 8.247989 7.640043 -89.897878 -0.000001 -0.000000 -0.000000 -2.345509 4.688878 -62.655204 8.754153 9.897077 -87.051294 -0.000000 0.000001 -0.000001 -9.042453 10.045633 -60.766171 8.524085 9.508837 -66.893035 -0.000002 -0.000000 -0.000000 -17.946904 14.755012 -51.485857 8.868455 8.667050 -84.811982 -0.000000 0.000000 0.000003 0.000002 0.000002 -0.000001 3.553677 17.233474 -9.962822 5.185745 5.341686 -2.433850 15.662641 31.146397 -9.027866 -12.315950 0.733325 -13.862439 -2.103301 -6.408982 -1.414473 4.016392 -28.183507 -8.246975 0.000001 -0.000001 0.000002 5.811190 -12.974716 33.475355 1.167862 -4.622496 40.751852 -0.000002 -0.000002 0.000003 2.758027 -10.575076 51.750165 1.786569 -6.378093 40.814342 0.000000 -0.000001 -0.000001 2.170268 -16.931226 51.020680 3.305845 -6.027673 49.645944 0.000002 0.000005 -0.000001 0.630565 -25.289011 66.090563 8.488893 -7.248955 81.951041 -0.000002 -0.000001 0.000000 0.000001 -0.000002 0.000000 0.000002 0.000000 -0.000001 0.000002 -0.000001 0.000001 0.000002 0.000000 -0.000001 0.000002 0.000000 -0.000001 0.000002 0.000000 -0.000001 0.000002 -0.000001 0.000001 0.000002 0.000000 -0.000001 0.000002 0.000000 -0.000001 0.000002 0.000000 -0.000001 0.000002 -0.000001 0.000001 -0.000000 0.000003 -0.000002 -0.000000 0.000003 -0.000002 -0.000000 0.000003 -0.000002 
